<?xml version="1.0" encoding="utf-8"?>
<!-- Generator: Adobe Illustrator 24.3.0, SVG Export Plug-In . SVG Version: 6.00 Build 0)  -->
<svg version="1.1" id="Layer_1" xmlns="http://www.w3.org/2000/svg" xmlns:xlink="http://www.w3.org/1999/xlink" x="0px" y="0px"
	 viewBox="0 0 391.19 89.61" style="enable-background:new 0 0 391.19 89.61;" xml:space="preserve">
<style type="text/css">
	.st0{fill:#ffffff;}
</style>
<g>
	<path class="st0" d="M108.21,0.14c-3.12,0-5.54,2.52-5.54,5.44v18.94c-3.73-2.62-8.56-4.23-13.5-4.23
		c-13.6,0-24.48,11.49-24.48,25.29c0,13.6,10.88,25.09,24.48,25.09c5.04,0,9.87-1.71,13.7-4.33c0.5,2.42,2.62,4.33,5.34,4.33
		c3.02,0,5.44-2.52,5.44-5.44V45.58c0-0.1,0-0.1,0-0.1V5.58C113.65,2.66,111.24,0.14,108.21,0.14z M98.64,55.55
		c-2.52,2.62-5.74,4.13-9.47,4.13c-3.63,0-6.95-1.51-9.47-4.13c-2.52-2.52-4.03-6.15-4.03-9.97c0-4.03,1.51-7.66,4.03-10.18
		c2.52-2.62,5.84-4.13,9.47-4.13c3.73,0,6.95,1.51,9.47,4.13c2.52,2.52,4.03,6.15,4.03,10.18C102.67,49.41,101.16,53.04,98.64,55.55
		z"/>
	<path class="st0" d="M163.93,24.62c-0.1-0.1-0.1-0.3-0.2-0.5c0-0.2,0-0.4-0.1-0.5c0-0.2-0.2-0.3-0.2-0.6c-0.2,0-0.2-0.1-0.3-0.2
		c-0.1-0.1-0.2-0.2-0.3-0.4c-0.1-0.1-0.2-0.3-0.3-0.3c-0.2-0.3-0.4-0.4-0.5-0.5c0-0.1-0.1-0.2-0.2-0.2c0,0,0-0.1-0.1-0.1
		c-0.2-0.1-0.4-0.3-0.6-0.3c-0.1,0-0.2-0.2-0.3-0.3c-0.1,0-0.3-0.1-0.5-0.1c-0.1-0.1-0.3-0.1-0.5-0.2c-0.2,0-0.2,0-0.5,0
		c-0.2,0-0.4-0.1-0.6-0.1h-29.12c-2.82,0-5.34,2.42-5.34,5.34c0,3.02,2.52,5.34,5.34,5.34h18.44l-22.67,31.33c0,0,0,0-0.1,0
		c-0.1,0.1-0.3,0.3-0.3,0.5c0,0-0.2,0.3-0.3,0.3c0,0.1-0.1,0.3-0.1,0.5c-0.1,0.2-0.1,0.4-0.2,0.5c0,0.2,0,0.3,0,0.4
		c0,0.2-0.1,0.5-0.1,0.71c0,0.1,0,0.1,0,0.1c0,0.1,0,0.2,0.1,0.3c0,0.2,0,0.5,0,0.71c0,0.1,0.1,0.3,0.1,0.4c0.1,0.3,0.1,0.5,0.2,0.5
		c0,0.3,0.1,0.4,0.3,0.5c0,0.2,0,0.3,0.2,0.4c0.1,0.1,0.2,0.2,0.3,0.4c0.1,0.1,0.2,0.2,0.4,0.5c0,0,0.3,0.2,0.4,0.3s0.2,0.2,0.3,0.2
		c0,0.1,0,0.1,0.1,0.1c0,0.1,0.1,0.1,0.2,0.3c0.1,0,0.3,0.2,0.4,0.2c0.1,0.1,0.2,0.1,0.4,0.2c0.2,0,0.4,0.1,0.6,0.2
		c0.1,0,0.2,0,0.3,0c0.4,0.1,0.71,0.1,1.01,0.1h29.12c2.82,0,5.34-2.42,5.34-5.34c0-3.02-2.52-5.34-5.34-5.34h-18.54l22.77-31.23
		c0-0.1,0-0.1,0-0.1c0.2-0.1,0.3-0.3,0.5-0.5c0-0.2,0-0.3,0-0.3c0.2-0.1,0.3-0.3,0.3-0.5c0.1-0.2,0.1-0.4,0.1-0.5
		c0.1-0.2,0.1-0.3,0.1-0.6c0,0,0-0.3,0.1-0.5v-0.1c0-0.1-0.1-0.3-0.1-0.4C163.93,25.03,163.93,24.83,163.93,24.62z"/>
	<path class="st0" d="M213.3,20.29c-2.62,0-4.63,1.91-5.24,4.43c-3.83-2.72-8.36-4.43-13.4-4.43c-6.85,0-12.8,2.92-17.13,7.56
		c-4.33,4.53-6.85,10.78-6.85,17.73c0,6.85,2.52,13.1,6.85,17.73c4.33,4.53,10.28,7.36,17.13,7.36c5.04,0,9.57-1.61,13.4-4.33
		c0.6,2.42,2.62,4.33,5.24,4.33c2.92,0,5.34-2.42,5.34-5.34V45.58V25.73C218.64,22.71,216.23,20.29,213.3,20.29z M204.03,55.96
		c-2.42,2.52-5.84,3.93-9.37,3.93c-3.63,0-7.05-1.41-9.37-3.93c-2.42-2.62-3.83-6.25-3.83-10.38c0-4.23,1.41-7.86,3.83-10.38
		c2.32-2.72,5.74-4.13,9.37-4.13c3.53,0,6.95,1.41,9.37,4.13c2.42,2.52,3.93,6.15,3.93,10.38
		C207.96,49.71,206.45,53.34,204.03,55.96z"/>
	<path class="st0" d="M255.92,20.29c-5.14,0-9.97,1.71-13.7,4.13c-0.4-2.22-2.72-4.13-5.54-4.13c-2.92,0-5.34,2.42-5.34,5.34v19.95
		c0,0.1,0,0.1,0,0.1v38.49c0,2.82,2.42,5.44,5.34,5.44c3.22,0,5.74-2.62,5.74-5.44V66.44c3.63,2.62,8.46,4.13,13.5,4.13
		c13.4,0,24.38-11.18,24.38-24.99C280.31,31.78,269.33,20.29,255.92,20.29z M265.4,55.66c-2.62,2.82-6.04,4.23-9.47,4.23
		c-3.73,0-7.05-1.41-9.57-4.23c-2.62-2.32-3.93-6.15-3.93-10.08c0-3.93,1.31-7.56,3.93-10.18c2.52-2.72,5.84-4.13,9.57-4.13
		c3.43,0,6.85,1.41,9.47,4.13c2.32,2.62,3.93,6.25,3.93,10.18C269.33,49.51,267.71,53.34,265.4,55.66z"/>
	<path class="st0" d="M293.1,20.39c-3.02,0-5.44,2.32-5.44,5.54v39.29c0,3.02,2.42,5.44,5.44,5.44c3.12,0,5.44-2.42,5.44-5.44V25.93
		C298.55,22.71,296.23,20.39,293.1,20.39z"/>
	<path class="st0" d="M293.1,0.14c-3.02,0-5.44,2.42-5.44,5.44V7.7c0,3.02,2.42,5.54,5.44,5.54c3.12,0,5.44-2.52,5.44-5.54V5.58
		C298.55,2.56,296.23,0.14,293.1,0.14z"/>
	<path class="st0" d="M329.68,20.29c-13.8,0-24.48,11.49-24.58,25.19c0.1,13.7,10.78,25.09,24.58,25.19c7.15,0,13.1-2.12,18.04-6.65
		c2.32-2.12,1.31-5.14,0-6.55c-1.31-1.61-5.44-1.91-7.56,0.3c-2.52,1.91-6.85,2.82-10.48,2.52c-3.53-0.3-7.56-2.12-9.67-4.53
		c-1.81-1.71-2.92-4.33-3.42-6.65h32.04c2.82,0,4.94-1.61,5.24-4.03c0.1-0.2,0.1-0.71,0.1-0.91c0-0.2,0-0.4,0-0.5
		C353.16,30.06,342.78,20.29,329.68,20.29z M316.08,40.54c0.81-4.13,5.04-10.28,13.6-10.68c8.77,0.71,13.9,6.65,14.91,10.68H316.08z
		"/>
	<path class="st0" d="M386.51,20.39c-5.04-0.1-9.37,1.71-12.7,3.93c-0.71,0.5-1.51,1.31-2.12,2.02v-0.71c0-2.92-2.52-5.24-5.54-5.24
		c-2.92,0-5.34,2.32-5.34,5.24v39.7c0,2.92,2.42,5.34,5.34,5.34c3.02,0,5.54-2.42,5.54-5.34V46.18c0.5-1.41,1.71-5.24,4.13-8.46
		c1.21-1.91,2.72-3.63,4.63-4.84c1.71-1.31,3.73-1.91,6.05-1.91c3.02,0,5.34-2.52,5.34-5.34C391.85,22.71,389.53,20.39,386.51,20.39
		z"/>
	<path class="st0" d="M35.46,3.32c-0.2-0.2-0.4-0.6-0.5-0.81c0-0.1-0.1-0.1-0.1-0.1c-0.1-0.2-0.3-0.4-0.5-0.6c0-0.2-0.1-0.2-0.1-0.3
		c-0.3-0.2-0.5-0.3-0.71-0.5c-0.1,0-0.1,0-0.1,0c-0.3-0.2-0.71-0.5-0.91-0.6c-0.1,0-0.1,0-0.1,0s-0.1,0-0.1-0.1
		c-0.2,0-0.6-0.1-0.81-0.2c-0.1,0-0.2,0-0.2,0C31.03,0,30.62,0,30.32,0s-0.6,0-1.01,0.1c-0.1,0-0.2,0-0.2,0
		c-0.3,0.1-0.5,0.2-0.81,0.2c-0.1,0.1-0.1,0.1-0.2,0.1c-0.3,0.1-0.6,0.4-0.81,0.5c-0.2,0.1-0.2,0.1-0.2,0.1
		c-0.2,0.2-0.4,0.3-0.6,0.5c-0.1,0.1-0.1,0.1-0.2,0.3c-0.1,0.2-0.4,0.4-0.5,0.6c-0.1,0-0.1,0-0.1,0.1c-0.2,0.2-0.3,0.6-0.4,0.81
		L0.4,62.17c-1.11,2.72,0.2,6.05,3.02,7.15c2.72,1.21,6.05-0.1,7.25-2.92l19.65-46.65L49.97,66.4c1.21,2.82,4.43,4.13,7.15,2.92
		c2.92-1.11,4.23-4.43,3.02-7.15L35.46,3.32z"/>
</g>
</svg>
