<?xml version="1.0" standalone="no"?>
<!DOCTYPE svg PUBLIC "-//W3C//DTD SVG 20010904//EN"
 "http://www.w3.org/TR/2001/REC-SVG-20010904/DTD/svg10.dtd">
<svg version="1.0" xmlns="http://www.w3.org/2000/svg"
 width="12.000000pt" height="12.000000pt" viewBox="0 0 1401.000000 1301.000000"
 preserveAspectRatio="xMidYMid meet">
<metadata>
Created by potrace 1.16, written by Peter Selinger 2001-2019
</metadata>
<g transform="translate(0.000000,1301.000000) scale(0.100000,-0.100000)"
fill="#000000" stroke="none">
<path d="M615 12993 c-158 -35 -270 -97 -386 -213 -84 -83 -102 -108 -142
-190 -25 -52 -53 -126 -62 -165 -14 -64 -16 -563 -13 -5955 l3 -5885 26 -72
c45 -122 96 -202 188 -294 92 -92 168 -141 292 -187 l74 -27 6415 0 6415 0 74
27 c127 47 199 94 296 192 104 104 161 205 195 340 20 79 20 126 20 5941 l0
5863 -26 88 c-41 142 -85 216 -194 324 -100 101 -159 139 -293 188 l-72 27
-6395 1 c-3517 1 -6404 0 -6415 -3z m12750 -525 c59 -31 84 -57 116 -118 l24
-45 0 -5805 c0 -5649 -1 -5806 -19 -5840 -35 -65 -67 -100 -119 -128 l-52 -27
-6305 0 -6305 0 -52 27 c-52 28 -84 63 -119 128 -18 34 -19 191 -19 5840 l0
5805 24 45 c42 81 102 126 186 141 22 3 2864 6 6315 5 l6275 -1 50 -27z"/>
<path d="M5360 10981 c-162 -52 -281 -171 -330 -329 -18 -59 -20 -93 -20 -402
0 -309 2 -343 20 -402 48 -156 172 -280 329 -328 62 -20 109 -20 2901 -20
2792 0 2839 0 2901 20 157 48 281 172 329 328 18 59 20 93 20 402 0 309 -2
343 -20 402 -48 156 -172 280 -329 328 -62 20 -108 20 -2905 19 -2695 0 -2844
-1 -2896 -18z m5650 -731 l0 -250 -2750 0 -2750 0 0 250 0 250 2750 0 2750 0
0 -250z"/>
<path d="M2141 10474 c-92 -46 -136 -128 -129 -244 5 -87 42 -151 112 -195
l49 -30 837 0 837 0 49 30 c30 19 60 49 79 79 27 45 30 57 30 136 0 79 -3 91
-30 136 -19 30 -49 60 -79 79 l-49 30 -826 3 -826 2 -54 -26z"/>
<path d="M5360 8481 c-162 -52 -281 -171 -330 -329 -19 -62 -20 -94 -20 -902
0 -808 1 -840 20 -902 48 -156 172 -280 329 -328 62 -20 109 -20 2901 -20
2792 0 2839 0 2901 20 157 48 281 172 329 328 19 62 20 94 20 902 0 808 -1
840 -20 902 -48 156 -172 280 -329 328 -62 20 -108 20 -2905 19 -2695 0 -2844
-1 -2896 -18z m5650 -1231 l0 -750 -2750 0 -2750 0 0 750 0 750 2750 0 2750 0
0 -750z"/>
<path d="M2141 7974 c-92 -46 -136 -128 -129 -244 5 -87 42 -151 112 -195 l49
-30 837 0 837 0 49 30 c30 19 60 49 79 79 27 45 30 57 30 136 0 79 -3 91 -30
136 -19 30 -49 60 -79 79 l-49 30 -826 3 -826 2 -54 -26z"/>
<path d="M5365 4994 c-170 -43 -269 -97 -386 -214 -84 -83 -102 -108 -142
-190 -66 -138 -81 -211 -75 -372 5 -107 11 -147 31 -205 41 -119 93 -201 186
-294 93 -93 170 -142 292 -186 69 -25 85 -27 239 -27 154 0 170 2 239 27 125
46 199 93 296 191 150 151 215 312 215 531 0 132 -27 243 -88 360 -48 92 -200
246 -290 293 -130 69 -193 85 -352 88 -80 1 -154 0 -165 -2z m248 -525 c58
-29 85 -56 113 -111 60 -117 11 -264 -108 -324 -161 -81 -348 35 -348 216 0
138 99 239 238 240 45 0 75 -6 105 -21z"/>
<path d="M6891 4974 c-92 -46 -136 -128 -129 -244 5 -87 42 -151 112 -195 l49
-30 2212 0 2212 0 49 30 c30 19 60 49 79 79 27 45 30 57 30 136 0 79 -3 91
-30 136 -19 30 -49 60 -79 79 l-49 30 -2202 3 -2201 2 -53 -26z"/>
<path d="M6891 3974 c-92 -46 -136 -128 -129 -244 5 -87 42 -151 112 -195 l49
-30 1712 0 1712 0 49 30 c30 19 60 49 79 79 27 45 30 57 30 136 0 79 -3 91
-30 136 -19 30 -49 60 -79 79 l-49 30 -1702 3 -1701 2 -53 -26z"/>
<path d="M1142 1974 c-58 -29 -105 -84 -123 -143 -6 -23 -9 -151 -7 -352 l3
-316 30 -49 c19 -30 49 -60 79 -79 45 -27 57 -30 136 -30 79 0 91 3 136 30 30
19 60 49 79 79 l30 49 0 337 0 337 -30 49 c-46 74 -109 108 -204 112 -66 3
-83 0 -129 -24z"/>
<path d="M2392 1974 c-58 -29 -105 -84 -123 -143 -6 -23 -9 -151 -7 -352 l3
-316 30 -49 c19 -30 49 -60 79 -79 45 -27 57 -30 136 -30 79 0 91 3 136 30 30
19 60 49 79 79 l30 49 0 337 0 337 -30 49 c-46 74 -109 108 -204 112 -66 3
-83 0 -129 -24z"/>
<path d="M3642 1974 c-58 -29 -105 -84 -123 -143 -6 -23 -9 -151 -7 -352 l3
-316 30 -49 c19 -30 49 -60 79 -79 45 -27 57 -30 136 -30 79 0 91 3 136 30 30
19 60 49 79 79 l30 49 0 337 0 337 -30 49 c-46 74 -109 108 -204 112 -66 3
-83 0 -129 -24z"/>
<path d="M4892 1974 c-58 -29 -105 -84 -123 -143 -6 -23 -9 -151 -7 -352 l3
-316 30 -49 c19 -30 49 -60 79 -79 45 -27 57 -30 136 -30 79 0 91 3 136 30 30
19 60 49 79 79 l30 49 0 337 0 337 -30 49 c-46 74 -109 108 -204 112 -66 3
-83 0 -129 -24z"/>
<path d="M6142 1974 c-58 -29 -105 -84 -123 -143 -6 -23 -9 -151 -7 -352 l3
-316 30 -49 c19 -30 49 -60 79 -79 45 -27 57 -30 136 -30 79 0 91 3 136 30 30
19 60 49 79 79 l30 49 0 337 0 337 -30 49 c-46 74 -109 108 -204 112 -66 3
-83 0 -129 -24z"/>
<path d="M7392 1974 c-58 -29 -105 -84 -123 -143 -6 -23 -9 -151 -7 -352 l3
-316 30 -49 c19 -30 49 -60 79 -79 45 -27 57 -30 136 -30 79 0 91 3 136 30 30
19 60 49 79 79 l30 49 0 337 0 337 -30 49 c-46 74 -109 108 -204 112 -66 3
-83 0 -129 -24z"/>
<path d="M8642 1974 c-58 -29 -105 -84 -123 -143 -6 -23 -9 -151 -7 -352 l3
-316 30 -49 c19 -30 49 -60 79 -79 45 -27 57 -30 136 -30 79 0 91 3 136 30 30
19 60 49 79 79 l30 49 0 337 0 337 -30 49 c-46 74 -109 108 -204 112 -66 3
-83 0 -129 -24z"/>
<path d="M9892 1974 c-58 -29 -105 -84 -123 -143 -6 -23 -9 -151 -7 -352 l3
-316 30 -49 c19 -30 49 -60 79 -79 45 -27 57 -30 136 -30 79 0 91 3 136 30 30
19 60 49 79 79 l30 49 0 337 0 337 -30 49 c-46 74 -109 108 -204 112 -66 3
-83 0 -129 -24z"/>
<path d="M11142 1974 c-58 -29 -105 -84 -123 -143 -6 -23 -9 -151 -7 -352 l3
-316 30 -49 c19 -30 49 -60 79 -79 45 -27 57 -30 136 -30 79 0 91 3 136 30 30
19 60 49 79 79 l30 49 0 337 0 337 -30 49 c-46 74 -109 108 -204 112 -66 3
-83 0 -129 -24z"/>
<path d="M12392 1974 c-58 -29 -105 -84 -123 -143 -6 -23 -9 -151 -7 -352 l3
-316 30 -49 c19 -30 49 -60 79 -79 45 -27 57 -30 136 -30 79 0 91 3 136 30 30
19 60 49 79 79 l30 49 0 337 0 337 -30 49 c-46 74 -109 108 -204 112 -66 3
-83 0 -129 -24z"/>
</g>
</svg>
